<svg xmlns="http://www.w3.org/2000/svg"
    xmlns:xlink="http://www.w3.org/1999/xlink" width="500" zoomAndPan="magnify" viewBox="0 0 375 374.999991" height="500" preserveAspectRatio="xMidYMid meet" version="1.0">
    <defs>
        <g/>
        <clipPath id="85481c4418">
            <path d="M 339.609375 161.039062 L 374 161.039062 L 374 214.289062 L 339.609375 214.289062 Z M 339.609375 161.039062 " clip-rule="nonzero"/>
        </clipPath>
        <clipPath id="c2cb5154ba">
            <path d="M 339.609375 169 L 368 169 L 368 214.289062 L 339.609375 214.289062 Z M 339.609375 169 " clip-rule="nonzero"/>
        </clipPath>
    </defs>
    <g clip-path="url(#85481c4418)">
        <path fill="#fe3335" d="M 359.605469 161.101562 C 357.4375 161.101562 354.710938 161.707031 351.433594 162.914062 C 347.6875 164.183594 344.808594 166.125 342.800781 168.742188 C 341.136719 171.128906 340.125 174.824219 339.769531 179.835938 C 339.65625 182.765625 340.476562 184.765625 342.226562 185.832031 C 344.714844 187.300781 346.703125 188.035156 348.199219 188.035156 C 349.148438 188.035156 349.898438 187.738281 350.445312 187.144531 C 351.347656 186.328125 352.132812 184.796875 352.800781 182.558594 C 353.019531 182.28125 352.691406 180.644531 351.820312 177.640625 C 351.738281 177.222656 351.8125 176.714844 352.042969 176.125 L 352.082031 176.015625 C 354.117188 173.414062 356.621094 171.894531 359.59375 171.460938 C 362.84375 171.671875 364.878906 172.96875 365.703125 175.355469 C 366.273438 177.589844 366.175781 179.941406 365.414062 182.410156 C 365.492188 182.863281 364.015625 186.007812 360.980469 191.84375 C 360.402344 193.148438 360.011719 194.5 359.808594 195.90625 C 359.492188 199.925781 359.984375 203.34375 361.289062 206.160156 C 361.851562 206.148438 362.21875 205.582031 362.386719 204.457031 C 362.195312 199.460938 362.550781 196.167969 363.449219 194.578125 C 363.714844 193.632812 365.902344 190.699219 370.011719 185.765625 C 370.785156 184.683594 371.441406 183.386719 371.980469 181.871094 C 373.886719 177.015625 374.164062 173.128906 372.8125 170.210938 C 370.429688 166 366.96875 163.113281 362.429688 161.550781 C 361.625 161.253906 360.683594 161.101562 359.605469 161.101562 Z M 361.703125 208.652344 C 360.917969 208.671875 360.265625 208.945312 359.746094 209.472656 C 359.226562 209.996094 358.953125 210.65625 358.933594 211.449219 C 358.9375 211.707031 358.96875 211.953125 359.035156 212.191406 C 359.03125 212.332031 359.191406 212.652344 359.511719 213.15625 C 359.964844 213.742188 360.570312 214.097656 361.328125 214.21875 C 361.453125 214.230469 361.578125 214.238281 361.695312 214.238281 C 362.335938 214.238281 362.902344 214.046875 363.394531 213.660156 C 363.972656 213.203125 364.324219 212.59375 364.445312 211.828125 L 364.46875 211.449219 C 364.449219 210.65625 364.179688 209.996094 363.660156 209.472656 C 363.136719 208.945312 362.484375 208.671875 361.703125 208.652344 Z M 361.703125 208.652344 " fill-opacity="1" fill-rule="nonzero"/>
    </g>
    <g clip-path="url(#c2cb5154ba)">
        <path fill="#cd1f21" d="M 358.738281 169.296875 C 357.214844 169.296875 355.855469 169.726562 354.664062 170.585938 C 352.898438 171.882812 351.753906 173.222656 351.234375 174.597656 C 350.925781 175.132812 350.75 176.082031 350.695312 177.445312 C 350.699219 177.835938 350.71875 178.226562 350.757812 178.613281 C 351.117188 181.085938 351.28125 182.371094 351.253906 182.460938 C 351.292969 183.125 351.246094 183.722656 351.117188 184.257812 C 350.679688 185.648438 349.824219 186.417969 348.550781 186.570312 C 348.140625 186.613281 347.742188 186.636719 347.355469 186.636719 C 345.542969 186.636719 343.957031 186.148438 342.605469 185.171875 C 341.488281 184.316406 340.546875 182.949219 339.777344 181.0625 C 339.914062 183.332031 340.730469 184.921875 342.226562 185.832031 C 344.714844 187.300781 346.703125 188.035156 348.199219 188.035156 C 349.148438 188.035156 349.898438 187.738281 350.445312 187.144531 C 351.347656 186.328125 352.132812 184.796875 352.800781 182.558594 C 352.859375 182.117188 352.832031 181.640625 352.71875 181.121094 C 352.074219 178.960938 351.773438 177.800781 351.820312 177.640625 C 351.738281 177.222656 351.8125 176.714844 352.042969 176.125 L 352.082031 176.015625 C 354.117188 173.414062 356.621094 171.894531 359.59375 171.460938 C 362.84375 171.671875 364.878906 172.96875 365.703125 175.355469 C 366.273438 177.589844 366.175781 179.941406 365.414062 182.410156 C 365.242188 183.054688 364.890625 183.953125 364.363281 185.109375 C 362.195312 189.257812 361.066406 191.503906 360.980469 191.84375 C 360.464844 193.011719 360.097656 194.214844 359.878906 195.464844 C 360.761719 193.5625 361.441406 192.164062 361.910156 191.277344 C 362.425781 190.222656 363.570312 188.230469 365.34375 185.292969 C 365.558594 184.914062 365.757812 184.527344 365.945312 184.136719 C 366.746094 182.339844 367.203125 180.789062 367.3125 179.496094 C 367.515625 177.253906 367.402344 175.605469 366.976562 174.550781 C 366.539062 173.289062 365.839844 172.269531 364.878906 171.492188 C 363.917969 170.714844 362.878906 170.148438 361.757812 169.789062 C 360.6875 169.460938 359.679688 169.296875 358.738281 169.296875 Z M 359.691406 197.464844 C 359.644531 198.800781 359.726562 200.144531 359.941406 201.484375 C 360.191406 203.121094 360.433594 204.363281 360.671875 205.210938 C 360.871094 205.804688 361.074219 206.125 361.289062 206.160156 C 361.851562 206.148438 362.21875 205.582031 362.386719 204.457031 C 362.464844 204.441406 362.488281 203.75 362.464844 202.386719 C 362.210938 203.566406 362.027344 204.28125 361.914062 204.53125 C 361.777344 204.921875 361.632812 205.125 361.480469 205.128906 C 361.347656 205.128906 361.199219 204.96875 361.039062 204.652344 C 360.332031 203.167969 359.882812 200.773438 359.695312 197.464844 Z M 364.046875 209.960938 C 364.15625 210.332031 364.222656 210.652344 364.238281 210.917969 C 364.265625 211.265625 364.210938 211.609375 364.074219 211.949219 C 363.722656 212.796875 363.105469 213.328125 362.222656 213.546875 C 362.085938 213.578125 361.9375 213.589844 361.789062 213.589844 C 361.511719 213.589844 361.21875 213.542969 360.90625 213.445312 C 360.675781 213.363281 360.453125 213.257812 360.242188 213.125 C 359.988281 212.953125 359.84375 212.839844 359.804688 212.792969 C 359.625 212.628906 359.476562 212.445312 359.359375 212.246094 C 359.320312 212.199219 359.25 212.046875 359.152344 211.78125 C 359.085938 211.621094 359.035156 211.316406 359 210.863281 C 358.960938 211.050781 358.941406 211.246094 358.933594 211.449219 C 358.9375 211.707031 358.96875 211.953125 359.035156 212.191406 L 359.152344 212.535156 C 359.246094 212.761719 359.367188 212.96875 359.511719 213.15625 C 359.964844 213.742188 360.570312 214.097656 361.328125 214.21875 C 361.453125 214.230469 361.578125 214.238281 361.695312 214.238281 C 362.335938 214.238281 362.902344 214.046875 363.394531 213.660156 C 363.972656 213.203125 364.324219 212.59375 364.445312 211.828125 L 364.46875 211.449219 C 364.457031 210.886719 364.316406 210.390625 364.046875 209.960938 Z M 364.046875 209.960938 " fill-opacity="1" fill-rule="nonzero"/>
    </g>
    <path fill="#fe5a5a" d="M 340.382812 179.75 L 340.390625 179.640625 C 340.988281 173.933594 342.273438 170.058594 344.246094 168.023438 C 346.863281 165.253906 350.613281 163.304688 355.488281 162.167969 C 351.597656 164.183594 349.460938 165.402344 349.082031 165.828125 C 347.394531 167.183594 346.023438 168.652344 344.96875 170.226562 C 344.152344 171.527344 343.597656 172.980469 343.304688 174.585938 C 342.871094 176.59375 342.617188 179.148438 342.542969 182.242188 C 342.53125 182.453125 342.46875 182.632812 342.351562 182.785156 C 342.007812 183.003906 341.554688 182.730469 340.992188 181.96875 C 340.5625 181.28125 340.359375 180.539062 340.382812 179.75 Z M 340.382812 179.75 " fill-opacity="1" fill-rule="nonzero"/>
    <g fill="#5147d4" fill-opacity="1">
        <g transform="translate(6.511751, 213.106275)">
            <g>
                <path d="M 12.203125 0.203125 C 10.242188 0.203125 8.476562 -0.15625 6.90625 -0.875 C 5.34375 -1.601562 4.097656 -2.671875 3.171875 -4.078125 C 2.242188 -5.492188 1.78125 -7.207031 1.78125 -9.21875 C 1.78125 -10.625 2.03125 -12.144531 2.53125 -13.78125 C 3.601562 -17.289062 5.222656 -19.820312 7.390625 -21.375 C 9.566406 -22.9375 11.894531 -23.71875 14.375 -23.71875 C 15.707031 -23.71875 16.890625 -23.515625 17.921875 -23.109375 C 18.953125 -22.710938 19.898438 -22.140625 20.765625 -21.390625 L 21.71875 -22.140625 C 22.34375 -22.628906 22.867188 -22.96875 23.296875 -23.15625 C 23.734375 -23.34375 24.222656 -23.4375 24.765625 -23.4375 C 25.347656 -23.4375 25.8125 -23.304688 26.15625 -23.046875 C 26.507812 -22.785156 26.6875 -22.410156 26.6875 -21.921875 C 26.6875 -21.660156 26.640625 -21.40625 26.546875 -21.15625 L 24.59375 -15.6875 C 24.382812 -15.050781 24.128906 -14.601562 23.828125 -14.34375 C 23.535156 -14.09375 23.097656 -13.96875 22.515625 -13.96875 C 21.910156 -13.96875 21.414062 -14.179688 21.03125 -14.609375 C 20.644531 -15.046875 20.207031 -15.789062 19.71875 -16.84375 C 19.15625 -17.9375 18.695312 -18.65625 18.34375 -19 C 17.988281 -19.351562 17.472656 -19.53125 16.796875 -19.53125 C 15.835938 -19.53125 14.914062 -18.941406 14.03125 -17.765625 C 13.144531 -16.585938 12.335938 -14.816406 11.609375 -12.453125 C 11.003906 -10.460938 10.703125 -8.800781 10.703125 -7.46875 C 10.703125 -6.300781 10.921875 -5.429688 11.359375 -4.859375 C 11.804688 -4.285156 12.40625 -4 13.15625 -4 C 14.25 -4 15.148438 -4.242188 15.859375 -4.734375 C 16.578125 -5.222656 17.3125 -5.890625 18.0625 -6.734375 C 18.53125 -7.242188 18.910156 -7.625 19.203125 -7.875 C 19.492188 -8.125 19.804688 -8.25 20.140625 -8.25 C 20.554688 -8.25 21 -8.035156 21.46875 -7.609375 C 21.9375 -7.191406 22.160156 -6.769531 22.140625 -6.34375 C 22.160156 -5.832031 21.742188 -5.035156 20.890625 -3.953125 C 20.035156 -2.878906 18.851562 -1.914062 17.34375 -1.0625 C 15.832031 -0.21875 14.117188 0.203125 12.203125 0.203125 Z M 12.203125 0.203125 "/>
            </g>
        </g>
    </g>
    <g fill="#5147d4" fill-opacity="1">
        <g transform="translate(30.78697, 213.106275)">
            <g>
                <path d="M 12.515625 -18.5625 C 15.210938 -18.5625 17.363281 -18.0625 18.96875 -17.0625 C 20.582031 -16.070312 21.390625 -14.554688 21.390625 -12.515625 C 21.390625 -11.742188 21.253906 -10.867188 20.984375 -9.890625 L 19.53125 -5.046875 C 19.507812 -4.953125 19.5 -4.835938 19.5 -4.703125 C 19.5 -4.328125 19.648438 -4.140625 19.953125 -4.140625 C 20.234375 -4.140625 20.472656 -4.257812 20.671875 -4.5 C 20.878906 -4.75 21.015625 -4.875 21.078125 -4.875 C 21.191406 -4.875 21.289062 -4.789062 21.375 -4.625 C 21.457031 -4.46875 21.5 -4.28125 21.5 -4.0625 C 21.519531 -3.4375 21.28125 -2.796875 20.78125 -2.140625 C 20.28125 -1.484375 19.609375 -0.941406 18.765625 -0.515625 C 17.921875 -0.0976562 17 0.109375 16 0.109375 C 14.78125 0.109375 13.738281 -0.113281 12.875 -0.5625 C 12.007812 -1.007812 11.410156 -1.664062 11.078125 -2.53125 C 10.378906 -1.6875 9.550781 -1.035156 8.59375 -0.578125 C 7.632812 -0.117188 6.601562 0.109375 5.5 0.109375 C 4.257812 0.109375 3.21875 -0.128906 2.375 -0.609375 C 1.539062 -1.085938 0.914062 -1.707031 0.5 -2.46875 C 0.09375 -3.226562 -0.109375 -4.03125 -0.109375 -4.875 C -0.109375 -5.25 -0.0703125 -5.613281 0 -5.96875 C 0.375 -7.582031 1.1875 -8.796875 2.4375 -9.609375 C 3.6875 -10.429688 5.175781 -10.84375 6.90625 -10.84375 C 8.851562 -10.84375 10.757812 -10.535156 12.625 -9.921875 L 13.5 -12.25 C 13.8125 -13.226562 13.96875 -13.984375 13.96875 -14.515625 C 13.9375 -15.078125 13.742188 -15.5 13.390625 -15.78125 C 13.046875 -16.0625 12.507812 -16.203125 11.78125 -16.203125 C 11.925781 -15.828125 12 -15.441406 12 -15.046875 C 12 -14.179688 11.671875 -13.429688 11.015625 -12.796875 C 10.359375 -12.171875 9.421875 -11.859375 8.203125 -11.859375 C 7.054688 -11.859375 6.160156 -12.109375 5.515625 -12.609375 C 4.878906 -13.109375 4.5625 -13.734375 4.5625 -14.484375 C 4.5625 -15.648438 5.210938 -16.617188 6.515625 -17.390625 C 7.828125 -18.171875 9.828125 -18.5625 12.515625 -18.5625 Z M 10.5625 -7.921875 C 9.90625 -7.921875 9.367188 -7.671875 8.953125 -7.171875 C 8.546875 -6.671875 8.34375 -6.128906 8.34375 -5.546875 C 8.34375 -5.171875 8.429688 -4.863281 8.609375 -4.625 C 8.785156 -4.394531 9.035156 -4.28125 9.359375 -4.28125 C 9.671875 -4.28125 10.003906 -4.398438 10.359375 -4.640625 C 10.722656 -4.890625 10.988281 -5.257812 11.15625 -5.75 L 11.890625 -7.828125 C 11.492188 -7.890625 11.050781 -7.921875 10.5625 -7.921875 Z M 10.5625 -7.921875 "/>
            </g>
        </g>
    </g>
    <g fill="#5147d4" fill-opacity="1">
        <g transform="translate(53.72916, 213.106275)">
            <g>
                <path d="M 33.359375 -4.84375 C 33.316406 -4.75 33.296875 -4.609375 33.296875 -4.421875 C 33.296875 -4.253906 33.332031 -4.125 33.40625 -4.03125 C 33.488281 -3.9375 33.601562 -3.890625 33.75 -3.890625 C 34.03125 -3.890625 34.269531 -4.007812 34.46875 -4.25 C 34.664062 -4.5 34.800781 -4.625 34.875 -4.625 C 34.988281 -4.625 35.078125 -4.546875 35.140625 -4.390625 C 35.210938 -4.242188 35.25 -4.066406 35.25 -3.859375 C 35.269531 -3.179688 35.046875 -2.519531 34.578125 -1.875 C 34.117188 -1.226562 33.4375 -0.703125 32.53125 -0.296875 C 31.632812 0.109375 30.554688 0.3125 29.296875 0.3125 C 27.742188 0.3125 26.507812 -0.0390625 25.59375 -0.75 C 24.6875 -1.46875 24.222656 -2.421875 24.203125 -3.609375 C 24.203125 -4.472656 24.410156 -5.445312 24.828125 -6.53125 L 26.765625 -11.578125 C 26.878906 -11.878906 26.9375 -12.125 26.9375 -12.3125 C 26.9375 -12.613281 26.835938 -12.851562 26.640625 -13.03125 C 26.441406 -13.207031 26.203125 -13.296875 25.921875 -13.296875 C 25.523438 -13.296875 25.113281 -13.117188 24.6875 -12.765625 C 24.269531 -12.421875 23.898438 -11.875 23.578125 -11.125 L 21.640625 -4.84375 C 21.597656 -4.75 21.578125 -4.609375 21.578125 -4.421875 C 21.578125 -4.253906 21.613281 -4.125 21.6875 -4.03125 C 21.769531 -3.9375 21.882812 -3.890625 22.03125 -3.890625 C 22.3125 -3.890625 22.550781 -4.007812 22.75 -4.25 C 22.945312 -4.5 23.082031 -4.625 23.15625 -4.625 C 23.269531 -4.625 23.359375 -4.546875 23.421875 -4.390625 C 23.492188 -4.242188 23.53125 -4.066406 23.53125 -3.859375 C 23.5625 -3.179688 23.34375 -2.519531 22.875 -1.875 C 22.40625 -1.226562 21.71875 -0.703125 20.8125 -0.296875 C 19.914062 0.109375 18.835938 0.3125 17.578125 0.3125 C 16.035156 0.3125 14.804688 -0.0390625 13.890625 -0.75 C 12.972656 -1.46875 12.503906 -2.421875 12.484375 -3.609375 C 12.484375 -4.472656 12.695312 -5.445312 13.125 -6.53125 L 15.046875 -11.578125 C 15.160156 -11.878906 15.21875 -12.125 15.21875 -12.3125 C 15.21875 -12.613281 15.117188 -12.851562 14.921875 -13.03125 C 14.722656 -13.207031 14.484375 -13.296875 14.203125 -13.296875 C 13.804688 -13.296875 13.394531 -13.125 12.96875 -12.78125 C 12.550781 -12.445312 12.203125 -11.90625 11.921875 -11.15625 L 9.609375 -3.640625 C 9.515625 -3.390625 9.46875 -3.144531 9.46875 -2.90625 C 9.46875 -2.625 9.523438 -2.394531 9.640625 -2.21875 C 9.765625 -2.050781 9.929688 -1.875 10.140625 -1.6875 C 10.304688 -1.539062 10.421875 -1.410156 10.484375 -1.296875 C 10.554688 -1.179688 10.566406 -1.039062 10.515625 -0.875 C 10.429688 -0.570312 10.210938 -0.347656 9.859375 -0.203125 C 9.503906 -0.0664062 8.953125 0 8.203125 0 L 0.203125 0 C -0.398438 0 -0.835938 -0.0976562 -1.109375 -0.296875 C -1.378906 -0.492188 -1.476562 -0.757812 -1.40625 -1.09375 C -1.3125 -1.375 -1.066406 -1.617188 -0.671875 -1.828125 C -0.316406 -2.015625 -0.0234375 -2.234375 0.203125 -2.484375 C 0.441406 -2.742188 0.644531 -3.15625 0.8125 -3.71875 L 3.921875 -13.859375 C 3.972656 -13.972656 4 -14.132812 4 -14.34375 C 4 -14.601562 3.945312 -14.800781 3.84375 -14.9375 C 3.738281 -15.082031 3.566406 -15.257812 3.328125 -15.46875 C 3.097656 -15.65625 2.9375 -15.816406 2.84375 -15.953125 C 2.75 -16.097656 2.738281 -16.285156 2.8125 -16.515625 C 2.945312 -17.054688 3.679688 -17.53125 5.015625 -17.9375 C 6.347656 -18.351562 7.738281 -18.5625 9.1875 -18.5625 C 10.332031 -18.5625 11.238281 -18.242188 11.90625 -17.609375 C 12.570312 -16.972656 12.894531 -16.109375 12.875 -15.015625 C 13.832031 -16.347656 14.84375 -17.269531 15.90625 -17.78125 C 16.96875 -18.300781 18.117188 -18.5625 19.359375 -18.5625 C 20.710938 -18.5625 21.816406 -18.164062 22.671875 -17.375 C 23.523438 -16.59375 24 -15.570312 24.09375 -14.3125 C 25.101562 -15.90625 26.179688 -17.007812 27.328125 -17.625 C 28.472656 -18.25 29.722656 -18.5625 31.078125 -18.5625 C 32.503906 -18.5625 33.65625 -18.125 34.53125 -17.25 C 35.40625 -16.382812 35.84375 -15.265625 35.84375 -13.890625 C 35.84375 -13.160156 35.726562 -12.445312 35.5 -11.75 Z M 33.359375 -4.84375 "/>
            </g>
        </g>
    </g>
    <g fill="#5147d4" fill-opacity="1">
        <g transform="translate(90.49277, 213.106275)">
            <g>
                <path d="M 18.34375 -18.703125 C 20.144531 -18.703125 21.5625 -18.101562 22.59375 -16.90625 C 23.625 -15.71875 24.140625 -14.09375 24.140625 -12.03125 C 24.140625 -10.9375 23.984375 -9.78125 23.671875 -8.5625 C 22.972656 -5.65625 21.664062 -3.445312 19.75 -1.9375 C 17.832031 -0.4375 15.609375 0.3125 13.078125 0.3125 C 11.460938 0.3125 10.0625 -0.0234375 8.875 -0.703125 L 7.75 3.046875 C 7.65625 3.304688 7.609375 3.550781 7.609375 3.78125 C 7.609375 4.039062 7.664062 4.257812 7.78125 4.4375 C 7.90625 4.613281 8.0625 4.785156 8.25 4.953125 C 8.4375 5.140625 8.554688 5.289062 8.609375 5.40625 C 8.671875 5.519531 8.675781 5.660156 8.625 5.828125 C 8.53125 6.128906 8.304688 6.34375 7.953125 6.46875 C 7.609375 6.601562 7.070312 6.671875 6.34375 6.671875 L -1.6875 6.671875 C -2.289062 6.671875 -2.726562 6.566406 -3 6.359375 C -3.269531 6.160156 -3.347656 5.910156 -3.234375 5.609375 C -3.179688 5.421875 -3.097656 5.269531 -2.984375 5.15625 C -2.867188 5.039062 -2.703125 4.9375 -2.484375 4.84375 C -2.140625 4.601562 -1.859375 4.359375 -1.640625 4.109375 C -1.429688 3.867188 -1.25 3.484375 -1.09375 2.953125 L 4.03125 -13.859375 C 4.101562 -14.066406 4.140625 -14.238281 4.140625 -14.375 C 4.140625 -14.632812 4.078125 -14.835938 3.953125 -14.984375 C 3.835938 -15.140625 3.664062 -15.300781 3.4375 -15.46875 C 3.207031 -15.65625 3.046875 -15.816406 2.953125 -15.953125 C 2.859375 -16.097656 2.84375 -16.285156 2.90625 -16.515625 C 3.050781 -17.054688 3.789062 -17.53125 5.125 -17.9375 C 6.457031 -18.351562 7.847656 -18.5625 9.296875 -18.5625 C 10.328125 -18.5625 11.175781 -18.300781 11.84375 -17.78125 C 12.507812 -17.269531 12.890625 -16.554688 12.984375 -15.640625 C 14.566406 -17.679688 16.351562 -18.703125 18.34375 -18.703125 Z M 14.28125 -8.28125 C 14.84375 -10.363281 15.125 -11.800781 15.125 -12.59375 C 15.125 -13.082031 15.046875 -13.398438 14.890625 -13.546875 C 14.734375 -13.703125 14.515625 -13.78125 14.234375 -13.78125 C 14.023438 -13.78125 13.753906 -13.679688 13.421875 -13.484375 C 13.097656 -13.285156 12.773438 -12.953125 12.453125 -12.484375 L 9.6875 -3.296875 C 9.96875 -3.015625 10.304688 -2.875 10.703125 -2.875 C 11.328125 -2.875 11.925781 -3.226562 12.5 -3.9375 C 13.070312 -4.65625 13.664062 -6.101562 14.28125 -8.28125 Z M 14.28125 -8.28125 "/>
            </g>
        </g>
    </g>
    <g fill="#5147d4" fill-opacity="1">
        <g transform="translate(114.732904, 213.106275)">
            <g>
                <path d="M 20.84375 -4.84375 C 20.789062 -4.65625 20.765625 -4.515625 20.765625 -4.421875 C 20.765625 -4.253906 20.804688 -4.125 20.890625 -4.03125 C 20.972656 -3.9375 21.082031 -3.890625 21.21875 -3.890625 C 21.5 -3.890625 21.738281 -4.007812 21.9375 -4.25 C 22.132812 -4.5 22.269531 -4.625 22.34375 -4.625 C 22.457031 -4.625 22.554688 -4.546875 22.640625 -4.390625 C 22.722656 -4.242188 22.765625 -4.066406 22.765625 -3.859375 C 22.785156 -3.203125 22.550781 -2.550781 22.0625 -1.90625 C 21.570312 -1.269531 20.878906 -0.738281 19.984375 -0.3125 C 19.097656 0.101562 18.109375 0.3125 17.015625 0.3125 C 15.628906 0.3125 14.523438 0.03125 13.703125 -0.53125 C 12.890625 -1.09375 12.367188 -1.828125 12.140625 -2.734375 C 11.296875 -1.796875 10.363281 -1.085938 9.34375 -0.609375 C 8.332031 -0.128906 7.300781 0.109375 6.25 0.109375 C 4.601562 0.109375 3.222656 -0.289062 2.109375 -1.09375 C 1.003906 -1.90625 0.453125 -3.035156 0.453125 -4.484375 C 0.453125 -5.140625 0.570312 -5.820312 0.8125 -6.53125 L 3.046875 -13.859375 C 3.117188 -14.066406 3.15625 -14.238281 3.15625 -14.375 C 3.15625 -14.632812 3.097656 -14.835938 2.984375 -14.984375 C 2.867188 -15.140625 2.691406 -15.300781 2.453125 -15.46875 C 2.222656 -15.65625 2.0625 -15.816406 1.96875 -15.953125 C 1.875 -16.097656 1.859375 -16.285156 1.921875 -16.515625 C 2.066406 -17.054688 2.804688 -17.53125 4.140625 -17.9375 C 5.472656 -18.351562 6.863281 -18.5625 8.3125 -18.5625 C 9.664062 -18.5625 10.660156 -18.300781 11.296875 -17.78125 C 11.929688 -17.269531 12.25 -16.570312 12.25 -15.6875 C 12.25 -15.144531 12.164062 -14.628906 12 -14.140625 L 9.78125 -6.84375 C 9.6875 -6.582031 9.640625 -6.335938 9.640625 -6.109375 C 9.640625 -5.773438 9.734375 -5.523438 9.921875 -5.359375 C 10.109375 -5.203125 10.351562 -5.125 10.65625 -5.125 C 11.101562 -5.125 11.46875 -5.25 11.75 -5.5 C 12.03125 -5.757812 12.3125 -6.195312 12.59375 -6.8125 L 14.734375 -13.859375 C 14.804688 -14.066406 14.84375 -14.238281 14.84375 -14.375 C 14.84375 -14.632812 14.78125 -14.835938 14.65625 -14.984375 C 14.539062 -15.140625 14.378906 -15.300781 14.171875 -15.46875 C 13.941406 -15.65625 13.78125 -15.816406 13.6875 -15.953125 C 13.59375 -16.097656 13.578125 -16.285156 13.640625 -16.515625 C 13.765625 -17.054688 14.488281 -17.53125 15.8125 -17.9375 C 17.144531 -18.351562 18.539062 -18.5625 20 -18.5625 C 21.351562 -18.5625 22.347656 -18.300781 22.984375 -17.78125 C 23.628906 -17.269531 23.953125 -16.582031 23.953125 -15.71875 C 23.953125 -15.269531 23.859375 -14.742188 23.671875 -14.140625 Z M 20.84375 -4.84375 "/>
            </g>
        </g>
    </g>
    <g fill="#5147d4" fill-opacity="1">
        <g transform="translate(138.797634, 213.106275)">
            <g>
                <path d="M 11.546875 -18.875 C 13.484375 -18.875 15.160156 -18.695312 16.578125 -18.34375 C 17.992188 -17.988281 19.082031 -17.492188 19.84375 -16.859375 C 20.601562 -16.234375 20.984375 -15.523438 20.984375 -14.734375 C 20.984375 -13.910156 20.660156 -13.242188 20.015625 -12.734375 C 19.367188 -12.222656 18.472656 -11.96875 17.328125 -11.96875 C 16.160156 -11.96875 15.171875 -12.257812 14.359375 -12.84375 C 13.554688 -13.425781 13.15625 -14.160156 13.15625 -15.046875 C 13.15625 -15.347656 13.203125 -15.640625 13.296875 -15.921875 C 12.867188 -16.035156 12.492188 -16.09375 12.171875 -16.09375 C 11.585938 -16.09375 11.101562 -15.953125 10.71875 -15.671875 C 10.332031 -15.398438 10.148438 -15.003906 10.171875 -14.484375 C 10.171875 -13.878906 10.472656 -13.363281 11.078125 -12.9375 C 11.691406 -12.519531 12.675781 -11.992188 14.03125 -11.359375 C 15.195312 -10.847656 16.160156 -10.375 16.921875 -9.9375 C 17.679688 -9.507812 18.320312 -8.96875 18.84375 -8.3125 C 19.375 -7.65625 19.640625 -6.882812 19.640625 -6 C 19.640625 -5.8125 19.59375 -5.460938 19.5 -4.953125 C 19.125 -3.378906 18.082031 -2.132812 16.375 -1.21875 C 14.675781 -0.3125 12.429688 0.140625 9.640625 0.140625 C 6.515625 0.140625 4.03125 -0.28125 2.1875 -1.125 C 0.351562 -1.96875 -0.5625 -3.125 -0.5625 -4.59375 C -0.5625 -5.601562 -0.257812 -6.363281 0.34375 -6.875 C 0.957031 -7.382812 1.765625 -7.640625 2.765625 -7.640625 C 3.941406 -7.640625 4.941406 -7.273438 5.765625 -6.546875 C 6.597656 -5.828125 7.015625 -4.90625 7.015625 -3.78125 C 7.015625 -3.476562 6.976562 -3.164062 6.90625 -2.84375 C 7.46875 -2.695312 8.007812 -2.625 8.53125 -2.625 C 9.132812 -2.625 9.632812 -2.785156 10.03125 -3.109375 C 10.425781 -3.441406 10.625 -3.898438 10.625 -4.484375 C 10.601562 -5.023438 10.332031 -5.488281 9.8125 -5.875 C 9.300781 -6.257812 8.484375 -6.722656 7.359375 -7.265625 C 6.304688 -7.753906 5.441406 -8.210938 4.765625 -8.640625 C 4.085938 -9.078125 3.507812 -9.625 3.03125 -10.28125 C 2.550781 -10.9375 2.3125 -11.707031 2.3125 -12.59375 C 2.3125 -14.507812 3.113281 -16.035156 4.71875 -17.171875 C 6.320312 -18.304688 8.597656 -18.875 11.546875 -18.875 Z M 11.546875 -18.875 "/>
            </g>
        </g>
    </g>
    <g fill="#5147d4" fill-opacity="1">
        <g transform="translate(159.59995, 213.106275)">
            <g/>
        </g>
    </g>
    <g fill="#5147d4" fill-opacity="1">
        <g transform="translate(166.615904, 213.106275)">
            <g>
                <path d="M 37.671875 -23.359375 C 38.160156 -23.359375 38.539062 -23.28125 38.8125 -23.125 C 39.082031 -22.976562 39.21875 -22.765625 39.21875 -22.484375 C 39.21875 -22.367188 39.179688 -22.21875 39.109375 -22.03125 C 39.035156 -21.820312 38.9375 -21.660156 38.8125 -21.546875 C 38.6875 -21.441406 38.492188 -21.3125 38.234375 -21.15625 C 37.859375 -20.945312 37.554688 -20.710938 37.328125 -20.453125 C 37.109375 -20.191406 36.921875 -19.796875 36.765625 -19.265625 L 32.484375 -4.171875 C 32.390625 -3.867188 32.34375 -3.578125 32.34375 -3.296875 C 32.34375 -3.035156 32.382812 -2.816406 32.46875 -2.640625 C 32.550781 -2.472656 32.660156 -2.269531 32.796875 -2.03125 C 32.890625 -1.914062 32.972656 -1.789062 33.046875 -1.65625 C 33.117188 -1.53125 33.15625 -1.398438 33.15625 -1.265625 C 33.15625 -1.210938 33.128906 -1.09375 33.078125 -0.90625 C 32.984375 -0.601562 32.765625 -0.378906 32.421875 -0.234375 C 32.085938 -0.0976562 31.601562 -0.03125 30.96875 -0.03125 L 22.734375 -0.03125 C 22.242188 -0.03125 21.863281 -0.113281 21.59375 -0.28125 C 21.320312 -0.445312 21.1875 -0.671875 21.1875 -0.953125 C 21.1875 -1.085938 21.222656 -1.238281 21.296875 -1.40625 C 21.359375 -1.570312 21.453125 -1.71875 21.578125 -1.84375 C 21.710938 -1.96875 21.832031 -2.054688 21.9375 -2.109375 C 22.039062 -2.171875 22.117188 -2.226562 22.171875 -2.28125 C 22.546875 -2.488281 22.847656 -2.722656 23.078125 -2.984375 C 23.316406 -3.242188 23.515625 -3.640625 23.671875 -4.171875 L 26.34375 -13.640625 L 17.265625 -2.390625 C 16.515625 -1.472656 15.910156 -0.84375 15.453125 -0.5 C 14.992188 -0.164062 14.472656 0 13.890625 0 C 13.328125 0 12.890625 -0.179688 12.578125 -0.546875 C 12.265625 -0.910156 11.976562 -1.523438 11.71875 -2.390625 L 8.421875 -13.21875 L 5.828125 -4.140625 C 5.734375 -3.835938 5.6875 -3.546875 5.6875 -3.265625 C 5.6875 -2.984375 5.722656 -2.75 5.796875 -2.5625 C 5.878906 -2.375 6.003906 -2.175781 6.171875 -1.96875 C 6.378906 -1.664062 6.484375 -1.421875 6.484375 -1.234375 C 6.484375 -1.179688 6.460938 -1.0625 6.421875 -0.875 C 6.328125 -0.550781 6.113281 -0.320312 5.78125 -0.1875 C 5.457031 -0.0625 4.96875 0 4.3125 0 L 1.40625 0 C 0.914062 0 0.535156 -0.078125 0.265625 -0.234375 C -0.00390625 -0.398438 -0.140625 -0.625 -0.140625 -0.90625 C -0.140625 -1.050781 -0.101562 -1.207031 -0.03125 -1.375 C 0.0625 -1.625 0.210938 -1.816406 0.421875 -1.953125 C 0.628906 -2.097656 0.757812 -2.179688 0.8125 -2.203125 C 1.1875 -2.441406 1.488281 -2.679688 1.71875 -2.921875 C 1.945312 -3.171875 2.144531 -3.578125 2.3125 -4.140625 L 6.59375 -19.296875 L 6.03125 -21.15625 C 5.914062 -21.5 5.859375 -21.835938 5.859375 -22.171875 C 5.859375 -22.585938 5.992188 -22.890625 6.265625 -23.078125 C 6.535156 -23.265625 6.945312 -23.359375 7.5 -23.359375 L 12.9375 -23.359375 C 13.644531 -23.359375 14.164062 -23.207031 14.5 -22.90625 C 14.84375 -22.601562 15.117188 -22.078125 15.328125 -21.328125 L 18.84375 -9.6875 L 28.34375 -21.5 C 28.945312 -22.25 29.539062 -22.742188 30.125 -22.984375 C 30.71875 -23.234375 31.492188 -23.359375 32.453125 -23.359375 Z M 37.671875 -23.359375 "/>
            </g>
        </g>
    </g>
    <g fill="#5147d4" fill-opacity="1">
        <g transform="translate(202.923477, 213.106275)">
            <g>
                <path d="M 18.59375 -18.5625 C 19.625 -18.5625 20.445312 -18.144531 21.0625 -17.3125 C 21.6875 -16.476562 22 -15.347656 22 -13.921875 C 22 -12.679688 21.773438 -11.347656 21.328125 -9.921875 C 20.460938 -7.046875 19.078125 -4.332031 17.171875 -1.78125 C 15.265625 0.757812 13.078125 2.800781 10.609375 4.34375 C 8.140625 5.894531 5.679688 6.671875 3.234375 6.671875 C 2.015625 6.671875 0.960938 6.457031 0.078125 6.03125 C -0.796875 5.613281 -1.457031 5.050781 -1.90625 4.34375 C -2.363281 3.644531 -2.59375 2.898438 -2.59375 2.109375 C -2.59375 1.753906 -2.535156 1.367188 -2.421875 0.953125 C -2.210938 0.296875 -1.859375 -0.207031 -1.359375 -0.5625 C -0.867188 -0.914062 -0.285156 -1.09375 0.390625 -1.09375 C 1.460938 -1.09375 2.34375 -0.722656 3.03125 0.015625 C 3.71875 0.753906 4.15625 1.765625 4.34375 3.046875 C 5.84375 2.984375 7.222656 2.34375 8.484375 1.125 C 7.296875 0.914062 6.414062 0.515625 5.84375 -0.078125 C 5.269531 -0.679688 4.878906 -1.613281 4.671875 -2.875 L 3.265625 -11.46875 C 3.191406 -11.914062 3.085938 -12.222656 2.953125 -12.390625 C 2.828125 -12.566406 2.660156 -12.65625 2.453125 -12.65625 C 2.285156 -12.65625 2.09375 -12.570312 1.875 -12.40625 C 1.65625 -12.25 1.5 -12.171875 1.40625 -12.171875 C 1.21875 -12.171875 1.125 -12.367188 1.125 -12.765625 C 1.125 -13.097656 1.179688 -13.453125 1.296875 -13.828125 C 1.710938 -15.148438 2.492188 -16.273438 3.640625 -17.203125 C 4.785156 -18.128906 6.117188 -18.59375 7.640625 -18.59375 C 9.140625 -18.59375 10.242188 -18.144531 10.953125 -17.25 C 11.671875 -16.363281 12.132812 -15 12.34375 -13.15625 L 13.40625 -5.4375 C 13.46875 -4.851562 13.675781 -4.5625 14.03125 -4.5625 C 14.445312 -4.5625 14.9375 -4.941406 15.5 -5.703125 C 16.0625 -6.460938 16.613281 -7.539062 17.15625 -8.9375 C 16.445312 -9.570312 15.90625 -10.296875 15.53125 -11.109375 C 15.164062 -11.929688 14.984375 -12.8125 14.984375 -13.75 C 14.984375 -14.476562 15.078125 -15.132812 15.265625 -15.71875 C 15.546875 -16.65625 15.984375 -17.363281 16.578125 -17.84375 C 17.171875 -18.320312 17.84375 -18.5625 18.59375 -18.5625 Z M 18.59375 -18.5625 "/>
            </g>
        </g>
    </g>
    <g fill="#5147d4" fill-opacity="1">
        <g transform="translate(224.672955, 213.106275)">
            <g>
                <path d="M 11.546875 -18.875 C 13.484375 -18.875 15.160156 -18.695312 16.578125 -18.34375 C 17.992188 -17.988281 19.082031 -17.492188 19.84375 -16.859375 C 20.601562 -16.234375 20.984375 -15.523438 20.984375 -14.734375 C 20.984375 -13.910156 20.660156 -13.242188 20.015625 -12.734375 C 19.367188 -12.222656 18.472656 -11.96875 17.328125 -11.96875 C 16.160156 -11.96875 15.171875 -12.257812 14.359375 -12.84375 C 13.554688 -13.425781 13.15625 -14.160156 13.15625 -15.046875 C 13.15625 -15.347656 13.203125 -15.640625 13.296875 -15.921875 C 12.867188 -16.035156 12.492188 -16.09375 12.171875 -16.09375 C 11.585938 -16.09375 11.101562 -15.953125 10.71875 -15.671875 C 10.332031 -15.398438 10.148438 -15.003906 10.171875 -14.484375 C 10.171875 -13.878906 10.472656 -13.363281 11.078125 -12.9375 C 11.691406 -12.519531 12.675781 -11.992188 14.03125 -11.359375 C 15.195312 -10.847656 16.160156 -10.375 16.921875 -9.9375 C 17.679688 -9.507812 18.320312 -8.96875 18.84375 -8.3125 C 19.375 -7.65625 19.640625 -6.882812 19.640625 -6 C 19.640625 -5.8125 19.59375 -5.460938 19.5 -4.953125 C 19.125 -3.378906 18.082031 -2.132812 16.375 -1.21875 C 14.675781 -0.3125 12.429688 0.140625 9.640625 0.140625 C 6.515625 0.140625 4.03125 -0.28125 2.1875 -1.125 C 0.351562 -1.96875 -0.5625 -3.125 -0.5625 -4.59375 C -0.5625 -5.601562 -0.257812 -6.363281 0.34375 -6.875 C 0.957031 -7.382812 1.765625 -7.640625 2.765625 -7.640625 C 3.941406 -7.640625 4.941406 -7.273438 5.765625 -6.546875 C 6.597656 -5.828125 7.015625 -4.90625 7.015625 -3.78125 C 7.015625 -3.476562 6.976562 -3.164062 6.90625 -2.84375 C 7.46875 -2.695312 8.007812 -2.625 8.53125 -2.625 C 9.132812 -2.625 9.632812 -2.785156 10.03125 -3.109375 C 10.425781 -3.441406 10.625 -3.898438 10.625 -4.484375 C 10.601562 -5.023438 10.332031 -5.488281 9.8125 -5.875 C 9.300781 -6.257812 8.484375 -6.722656 7.359375 -7.265625 C 6.304688 -7.753906 5.441406 -8.210938 4.765625 -8.640625 C 4.085938 -9.078125 3.507812 -9.625 3.03125 -10.28125 C 2.550781 -10.9375 2.3125 -11.707031 2.3125 -12.59375 C 2.3125 -14.507812 3.113281 -16.035156 4.71875 -17.171875 C 6.320312 -18.304688 8.597656 -18.875 11.546875 -18.875 Z M 11.546875 -18.875 "/>
            </g>
        </g>
    </g>
    <g fill="#5147d4" fill-opacity="1">
        <g transform="translate(245.47527, 213.106275)">
            <g>
                <path d="M 15.6875 -18.09375 C 16.125 -18.09375 16.460938 -18 16.703125 -17.8125 C 16.953125 -17.625 17.078125 -17.367188 17.078125 -17.046875 C 17.078125 -16.953125 17.054688 -16.789062 17.015625 -16.5625 C 16.710938 -15.53125 16.007812 -15.015625 14.90625 -15.015625 L 12.875 -15.015625 L 10.25 -6.34375 C 10.125 -6 10.0625 -5.640625 10.0625 -5.265625 C 10.0625 -4.835938 10.175781 -4.539062 10.40625 -4.375 C 10.644531 -4.21875 10.976562 -4.140625 11.40625 -4.140625 C 11.78125 -4.140625 12.242188 -4.1875 12.796875 -4.28125 C 13.078125 -4.351562 13.328125 -4.390625 13.546875 -4.390625 C 13.703125 -4.390625 13.820312 -4.332031 13.90625 -4.21875 C 13.988281 -4.113281 14.03125 -3.984375 14.03125 -3.828125 C 14.050781 -3.359375 13.703125 -2.789062 12.984375 -2.125 C 12.273438 -1.457031 11.3125 -0.882812 10.09375 -0.40625 C 8.882812 0.0703125 7.539062 0.3125 6.0625 0.3125 C 4.476562 0.3125 3.207031 -0.046875 2.25 -0.765625 C 1.289062 -1.492188 0.8125 -2.488281 0.8125 -3.75 C 0.8125 -4.332031 0.90625 -4.894531 1.09375 -5.4375 L 3.328125 -12.375 C 3.441406 -12.78125 3.5 -13.097656 3.5 -13.328125 C 3.5 -13.796875 3.390625 -14.191406 3.171875 -14.515625 C 2.953125 -14.847656 2.644531 -15.191406 2.25 -15.546875 C 1.894531 -15.867188 1.644531 -16.140625 1.5 -16.359375 C 1.363281 -16.585938 1.332031 -16.851562 1.40625 -17.15625 C 1.5 -17.457031 1.695312 -17.6875 2 -17.84375 C 2.300781 -18.007812 2.78125 -18.09375 3.4375 -18.09375 L 5.40625 -18.09375 L 7.609375 -20.3125 C 8.378906 -21.082031 9.085938 -21.617188 9.734375 -21.921875 C 10.378906 -22.222656 11.21875 -22.375 12.25 -22.375 C 13.71875 -22.375 14.453125 -21.816406 14.453125 -20.703125 C 14.453125 -20.347656 14.40625 -20.019531 14.3125 -19.71875 L 13.828125 -18.09375 Z M 15.6875 -18.09375 "/>
            </g>
        </g>
    </g>
    <g fill="#5147d4" fill-opacity="1">
        <g transform="translate(260.559574, 213.106275)">
            <g>
                <path d="M 11.890625 -18.734375 C 14.859375 -18.734375 17.007812 -18.257812 18.34375 -17.3125 C 19.675781 -16.363281 20.34375 -15.15625 20.34375 -13.6875 C 20.34375 -13.238281 20.296875 -12.828125 20.203125 -12.453125 C 19.847656 -10.910156 18.867188 -9.804688 17.265625 -9.140625 C 15.671875 -8.472656 13.785156 -8.140625 11.609375 -8.140625 C 10.515625 -8.140625 9.488281 -8.207031 8.53125 -8.34375 C 8.5 -7.132812 8.820312 -6.28125 9.5 -5.78125 C 10.175781 -5.289062 11.125 -5.046875 12.34375 -5.046875 C 12.90625 -5.046875 13.441406 -5.109375 13.953125 -5.234375 C 14.472656 -5.367188 15.128906 -5.566406 15.921875 -5.828125 C 16.578125 -6.054688 17.023438 -6.171875 17.265625 -6.171875 C 17.515625 -6.171875 17.640625 -6.019531 17.640625 -5.71875 C 17.660156 -4.894531 17.351562 -4.03125 16.71875 -3.125 C 16.09375 -2.226562 15.160156 -1.460938 13.921875 -0.828125 C 12.679688 -0.203125 11.1875 0.109375 9.4375 0.109375 C 6.84375 0.109375 4.710938 -0.546875 3.046875 -1.859375 C 1.390625 -3.171875 0.5625 -5.078125 0.5625 -7.578125 C 0.5625 -8.273438 0.65625 -9.09375 0.84375 -10.03125 C 1.425781 -12.90625 2.703125 -15.070312 4.671875 -16.53125 C 6.648438 -18 9.054688 -18.734375 11.890625 -18.734375 Z M 8.765625 -10.453125 C 8.859375 -10.429688 8.988281 -10.421875 9.15625 -10.421875 C 10.132812 -10.421875 10.878906 -10.875 11.390625 -11.78125 C 11.910156 -12.695312 12.160156 -13.71875 12.140625 -14.84375 C 12.117188 -15.488281 11.929688 -15.8125 11.578125 -15.8125 C 11.316406 -15.8125 11.007812 -15.609375 10.65625 -15.203125 C 10.3125 -14.796875 9.96875 -14.179688 9.625 -13.359375 C 9.289062 -12.546875 9.003906 -11.578125 8.765625 -10.453125 Z M 8.765625 -10.453125 "/>
            </g>
        </g>
    </g>
    <g fill="#5147d4" fill-opacity="1">
        <g transform="translate(280.204263, 213.106275)">
            <g>
                <path d="M 17.21875 -18.5625 C 18.53125 -18.5625 19.578125 -18.160156 20.359375 -17.359375 C 21.140625 -16.566406 21.53125 -15.585938 21.53125 -14.421875 C 21.53125 -13.972656 21.484375 -13.5625 21.390625 -13.1875 C 21.160156 -12.226562 20.71875 -11.488281 20.0625 -10.96875 C 19.40625 -10.457031 18.625 -10.203125 17.71875 -10.203125 C 16.820312 -10.203125 16.144531 -10.410156 15.6875 -10.828125 C 15.238281 -11.253906 14.835938 -11.816406 14.484375 -12.515625 C 14.296875 -12.921875 14.117188 -13.21875 13.953125 -13.40625 C 13.796875 -13.59375 13.613281 -13.6875 13.40625 -13.6875 C 13.164062 -13.6875 12.957031 -13.59375 12.78125 -13.40625 C 12.601562 -13.21875 12.445312 -12.890625 12.3125 -12.421875 L 9.609375 -3.640625 C 9.566406 -3.523438 9.546875 -3.351562 9.546875 -3.125 C 9.546875 -2.820312 9.628906 -2.566406 9.796875 -2.359375 C 9.972656 -2.160156 10.210938 -1.96875 10.515625 -1.78125 C 10.796875 -1.601562 10.984375 -1.453125 11.078125 -1.328125 C 11.171875 -1.210938 11.207031 -1.0625 11.1875 -0.875 C 11.144531 -0.570312 10.976562 -0.347656 10.6875 -0.203125 C 10.394531 -0.0664062 9.894531 0 9.1875 0 L 0.203125 0 C -0.398438 0 -0.835938 -0.0976562 -1.109375 -0.296875 C -1.378906 -0.492188 -1.476562 -0.757812 -1.40625 -1.09375 C -1.3125 -1.375 -1.066406 -1.617188 -0.671875 -1.828125 C -0.316406 -2.015625 -0.0234375 -2.234375 0.203125 -2.484375 C 0.441406 -2.742188 0.644531 -3.15625 0.8125 -3.71875 L 3.921875 -13.859375 C 3.972656 -13.972656 4 -14.132812 4 -14.34375 C 4 -14.601562 3.945312 -14.800781 3.84375 -14.9375 C 3.738281 -15.082031 3.566406 -15.257812 3.328125 -15.46875 C 3.097656 -15.65625 2.9375 -15.816406 2.84375 -15.953125 C 2.75 -16.097656 2.738281 -16.285156 2.8125 -16.515625 C 2.945312 -17.054688 3.679688 -17.53125 5.015625 -17.9375 C 6.347656 -18.351562 7.738281 -18.5625 9.1875 -18.5625 C 10.144531 -18.5625 10.9375 -18.34375 11.5625 -17.90625 C 12.195312 -17.476562 12.609375 -16.863281 12.796875 -16.0625 C 13.921875 -17.726562 15.394531 -18.5625 17.21875 -18.5625 Z M 17.21875 -18.5625 "/>
            </g>
        </g>
    </g>
    <g fill="#5147d4" fill-opacity="1">
        <g transform="translate(300.515453, 213.106275)">
            <g>
                <path d="M 9.234375 -18.5625 C 10.585938 -18.5625 11.578125 -18.300781 12.203125 -17.78125 C 12.835938 -17.269531 13.15625 -16.570312 13.15625 -15.6875 C 13.15625 -15.144531 13.070312 -14.628906 12.90625 -14.140625 L 9.6875 -3.640625 C 9.613281 -3.367188 9.578125 -3.125 9.578125 -2.90625 C 9.578125 -2.601562 9.632812 -2.363281 9.75 -2.1875 C 9.875 -2.007812 10.039062 -1.84375 10.25 -1.6875 C 10.414062 -1.519531 10.53125 -1.382812 10.59375 -1.28125 C 10.664062 -1.175781 10.675781 -1.039062 10.625 -0.875 C 10.507812 -0.570312 10.273438 -0.347656 9.921875 -0.203125 C 9.578125 -0.0664062 9.039062 0 8.3125 0 L 0.3125 0 C -0.289062 0 -0.734375 -0.0976562 -1.015625 -0.296875 C -1.296875 -0.492188 -1.390625 -0.757812 -1.296875 -1.09375 C -1.203125 -1.375 -0.957031 -1.617188 -0.5625 -1.828125 C -0.207031 -2.015625 0.0820312 -2.234375 0.3125 -2.484375 C 0.550781 -2.742188 0.753906 -3.15625 0.921875 -3.71875 L 3.96875 -13.859375 C 4.039062 -14.066406 4.078125 -14.238281 4.078125 -14.375 C 4.078125 -14.632812 4.015625 -14.835938 3.890625 -14.984375 C 3.773438 -15.140625 3.601562 -15.300781 3.375 -15.46875 C 3.132812 -15.65625 2.96875 -15.816406 2.875 -15.953125 C 2.78125 -16.097656 2.769531 -16.285156 2.84375 -16.515625 C 2.988281 -17.054688 3.726562 -17.53125 5.0625 -17.9375 C 6.394531 -18.351562 7.785156 -18.5625 9.234375 -18.5625 Z M 11.578125 -26.3125 C 12.492188 -26.3125 13.253906 -26.007812 13.859375 -25.40625 C 14.460938 -24.8125 14.765625 -24.082031 14.765625 -23.21875 C 14.765625 -22.613281 14.609375 -22.019531 14.296875 -21.4375 C 13.984375 -20.851562 13.539062 -20.378906 12.96875 -20.015625 C 12.394531 -19.648438 11.753906 -19.46875 11.046875 -19.46875 C 10.160156 -19.46875 9.421875 -19.765625 8.828125 -20.359375 C 8.234375 -20.953125 7.921875 -21.695312 7.890625 -22.59375 C 7.890625 -23.175781 8.039062 -23.753906 8.34375 -24.328125 C 8.65625 -24.898438 9.09375 -25.375 9.65625 -25.75 C 10.21875 -26.125 10.859375 -26.3125 11.578125 -26.3125 Z M 11.578125 -26.3125 "/>
            </g>
        </g>
    </g>
    <g fill="#5147d4" fill-opacity="1">
        <g transform="translate(313.354651, 213.106275)">
            <g>
                <path d="M 11.890625 -18.734375 C 14.859375 -18.734375 17.007812 -18.257812 18.34375 -17.3125 C 19.675781 -16.363281 20.34375 -15.15625 20.34375 -13.6875 C 20.34375 -13.238281 20.296875 -12.828125 20.203125 -12.453125 C 19.847656 -10.910156 18.867188 -9.804688 17.265625 -9.140625 C 15.671875 -8.472656 13.785156 -8.140625 11.609375 -8.140625 C 10.515625 -8.140625 9.488281 -8.207031 8.53125 -8.34375 C 8.5 -7.132812 8.820312 -6.28125 9.5 -5.78125 C 10.175781 -5.289062 11.125 -5.046875 12.34375 -5.046875 C 12.90625 -5.046875 13.441406 -5.109375 13.953125 -5.234375 C 14.472656 -5.367188 15.128906 -5.566406 15.921875 -5.828125 C 16.578125 -6.054688 17.023438 -6.171875 17.265625 -6.171875 C 17.515625 -6.171875 17.640625 -6.019531 17.640625 -5.71875 C 17.660156 -4.894531 17.351562 -4.03125 16.71875 -3.125 C 16.09375 -2.226562 15.160156 -1.460938 13.921875 -0.828125 C 12.679688 -0.203125 11.1875 0.109375 9.4375 0.109375 C 6.84375 0.109375 4.710938 -0.546875 3.046875 -1.859375 C 1.390625 -3.171875 0.5625 -5.078125 0.5625 -7.578125 C 0.5625 -8.273438 0.65625 -9.09375 0.84375 -10.03125 C 1.425781 -12.90625 2.703125 -15.070312 4.671875 -16.53125 C 6.648438 -18 9.054688 -18.734375 11.890625 -18.734375 Z M 8.765625 -10.453125 C 8.859375 -10.429688 8.988281 -10.421875 9.15625 -10.421875 C 10.132812 -10.421875 10.878906 -10.875 11.390625 -11.78125 C 11.910156 -12.695312 12.160156 -13.71875 12.140625 -14.84375 C 12.117188 -15.488281 11.929688 -15.8125 11.578125 -15.8125 C 11.316406 -15.8125 11.007812 -15.609375 10.65625 -15.203125 C 10.3125 -14.796875 9.96875 -14.179688 9.625 -13.359375 C 9.289062 -12.546875 9.003906 -11.578125 8.765625 -10.453125 Z M 8.765625 -10.453125 "/>
            </g>
        </g>
    </g>
    <g fill="#5147d4" fill-opacity="1">
        <g transform="translate(332.99934, 213.106275)">
            <g>
                <path d="M 11.546875 -18.875 C 13.484375 -18.875 15.160156 -18.695312 16.578125 -18.34375 C 17.992188 -17.988281 19.082031 -17.492188 19.84375 -16.859375 C 20.601562 -16.234375 20.984375 -15.523438 20.984375 -14.734375 C 20.984375 -13.910156 20.660156 -13.242188 20.015625 -12.734375 C 19.367188 -12.222656 18.472656 -11.96875 17.328125 -11.96875 C 16.160156 -11.96875 15.171875 -12.257812 14.359375 -12.84375 C 13.554688 -13.425781 13.15625 -14.160156 13.15625 -15.046875 C 13.15625 -15.347656 13.203125 -15.640625 13.296875 -15.921875 C 12.867188 -16.035156 12.492188 -16.09375 12.171875 -16.09375 C 11.585938 -16.09375 11.101562 -15.953125 10.71875 -15.671875 C 10.332031 -15.398438 10.148438 -15.003906 10.171875 -14.484375 C 10.171875 -13.878906 10.472656 -13.363281 11.078125 -12.9375 C 11.691406 -12.519531 12.675781 -11.992188 14.03125 -11.359375 C 15.195312 -10.847656 16.160156 -10.375 16.921875 -9.9375 C 17.679688 -9.507812 18.320312 -8.96875 18.84375 -8.3125 C 19.375 -7.65625 19.640625 -6.882812 19.640625 -6 C 19.640625 -5.8125 19.59375 -5.460938 19.5 -4.953125 C 19.125 -3.378906 18.082031 -2.132812 16.375 -1.21875 C 14.675781 -0.3125 12.429688 0.140625 9.640625 0.140625 C 6.515625 0.140625 4.03125 -0.28125 2.1875 -1.125 C 0.351562 -1.96875 -0.5625 -3.125 -0.5625 -4.59375 C -0.5625 -5.601562 -0.257812 -6.363281 0.34375 -6.875 C 0.957031 -7.382812 1.765625 -7.640625 2.765625 -7.640625 C 3.941406 -7.640625 4.941406 -7.273438 5.765625 -6.546875 C 6.597656 -5.828125 7.015625 -4.90625 7.015625 -3.78125 C 7.015625 -3.476562 6.976562 -3.164062 6.90625 -2.84375 C 7.46875 -2.695312 8.007812 -2.625 8.53125 -2.625 C 9.132812 -2.625 9.632812 -2.785156 10.03125 -3.109375 C 10.425781 -3.441406 10.625 -3.898438 10.625 -4.484375 C 10.601562 -5.023438 10.332031 -5.488281 9.8125 -5.875 C 9.300781 -6.257812 8.484375 -6.722656 7.359375 -7.265625 C 6.304688 -7.753906 5.441406 -8.210938 4.765625 -8.640625 C 4.085938 -9.078125 3.507812 -9.625 3.03125 -10.28125 C 2.550781 -10.9375 2.3125 -11.707031 2.3125 -12.59375 C 2.3125 -14.507812 3.113281 -16.035156 4.71875 -17.171875 C 6.320312 -18.304688 8.597656 -18.875 11.546875 -18.875 Z M 11.546875 -18.875 "/>
            </g>
        </g>
    </g>
</svg>