<svg xmlns="http://www.w3.org/2000/svg"
    xmlns:xlink="http://www.w3.org/1999/xlink" width="500" zoomAndPan="magnify" viewBox="0 0 375 374.999991" height="500" preserveAspectRatio="xMidYMid meet" version="1.0">
    <defs>
        <clipPath id="442019e9f3">
            <path d="M 137.285156 112.410156 L 235 112.410156 L 235 262.410156 L 137.285156 262.410156 Z M 137.285156 112.410156 " clip-rule="nonzero"/>
        </clipPath>
        <clipPath id="41decf6131">
            <path d="M 137.285156 135 L 217 135 L 217 262.410156 L 137.285156 262.410156 Z M 137.285156 135 " clip-rule="nonzero"/>
        </clipPath>
    </defs>
    <g clip-path="url(#442019e9f3)">
        <path fill="#fe3335" d="M 194.304688 112.589844 C 188.117188 112.589844 180.347656 114.292969 170.996094 117.691406 C 160.316406 121.269531 152.109375 126.738281 146.382812 134.105469 C 141.640625 140.828125 138.757812 151.25 137.738281 165.363281 C 137.417969 173.617188 139.757812 179.246094 144.753906 182.25 C 151.84375 186.386719 157.519531 188.453125 161.777344 188.453125 C 164.484375 188.453125 166.621094 187.621094 168.1875 185.949219 C 170.75 183.648438 172.988281 179.339844 174.898438 173.03125 C 175.519531 172.253906 174.585938 167.636719 172.101562 159.183594 C 171.867188 158 172.082031 156.574219 172.738281 154.90625 L 172.855469 154.597656 C 178.652344 147.265625 185.792969 142.992188 194.269531 141.773438 C 203.527344 142.363281 209.332031 146.019531 211.6875 152.738281 C 213.3125 159.03125 213.035156 165.65625 210.859375 172.613281 C 211.082031 173.886719 206.867188 182.746094 198.21875 199.191406 C 196.574219 202.859375 195.457031 206.671875 194.875 210.628906 C 193.972656 221.953125 195.382812 231.585938 199.101562 239.519531 C 200.707031 239.484375 201.75 237.886719 202.230469 234.71875 C 201.683594 220.644531 202.691406 211.367188 205.253906 206.886719 C 206.015625 204.230469 212.253906 195.957031 223.96875 182.070312 C 226.171875 179.019531 228.042969 175.359375 229.582031 171.09375 C 235.019531 157.421875 235.808594 146.472656 231.953125 138.246094 C 225.160156 126.390625 215.296875 118.257812 202.355469 113.851562 C 200.0625 113.011719 197.378906 112.589844 194.304688 112.589844 Z M 200.277344 246.539062 C 198.042969 246.59375 196.183594 247.363281 194.699219 248.84375 C 193.214844 250.328125 192.445312 252.183594 192.386719 254.414062 C 192.390625 255.140625 192.484375 255.835938 192.667969 256.507812 C 192.667969 256.894531 193.121094 257.800781 194.03125 259.226562 C 195.324219 260.878906 197.050781 261.875 199.207031 262.214844 C 199.566406 262.253906 199.917969 262.273438 200.261719 262.273438 C 202.082031 262.273438 203.695312 261.730469 205.097656 260.648438 C 206.753906 259.355469 207.753906 257.632812 208.09375 255.480469 L 208.167969 254.414062 C 208.109375 252.183594 207.339844 250.328125 205.855469 248.84375 C 204.371094 247.363281 202.511719 246.59375 200.277344 246.539062 Z M 200.277344 246.539062 " fill-opacity="1" fill-rule="nonzero"/>
    </g>
    <g clip-path="url(#41decf6131)">
        <path fill="#cd1f21" d="M 191.820312 135.671875 C 187.476562 135.671875 183.605469 136.882812 180.207031 139.300781 C 175.171875 142.960938 171.914062 146.730469 170.429688 150.605469 C 169.558594 152.113281 169.046875 154.789062 168.894531 158.628906 C 168.902344 159.726562 168.964844 160.824219 169.078125 161.917969 C 170.09375 168.886719 170.5625 172.496094 170.484375 172.757812 C 170.597656 174.625 170.46875 176.3125 170.097656 177.816406 C 168.851562 181.730469 166.414062 183.902344 162.785156 184.328125 C 161.617188 184.453125 160.480469 184.515625 159.371094 184.515625 C 154.203125 184.515625 149.6875 183.140625 145.824219 180.394531 C 142.648438 177.988281 139.960938 174.128906 137.773438 168.816406 L 137.769531 168.820312 C 138.160156 175.207031 140.488281 179.6875 144.753906 182.25 C 151.84375 186.386719 157.519531 188.453125 161.777344 188.453125 C 164.484375 188.453125 166.621094 187.621094 168.1875 185.949219 C 170.75 183.648438 172.988281 179.339844 174.898438 173.03125 C 175.066406 171.789062 174.988281 170.441406 174.664062 168.984375 C 172.824219 162.902344 171.96875 159.632812 172.101562 159.183594 C 171.867188 158 172.082031 156.574219 172.738281 154.90625 L 172.855469 154.597656 C 178.652344 147.265625 185.792969 142.992188 194.269531 141.773438 C 203.527344 142.363281 209.332031 146.019531 211.6875 152.738281 C 213.3125 159.03125 213.035156 165.65625 210.859375 172.613281 C 210.367188 174.429688 209.371094 176.960938 207.867188 180.214844 C 201.683594 191.90625 198.46875 198.230469 198.21875 199.191406 C 196.746094 202.472656 195.699219 205.871094 195.078125 209.386719 C 197.597656 204.023438 199.53125 200.09375 200.875 197.589844 C 202.335938 194.621094 205.597656 189.003906 210.664062 180.738281 C 211.269531 179.664062 211.84375 178.578125 212.378906 177.480469 C 214.660156 172.410156 215.957031 168.050781 216.269531 164.398438 C 216.851562 158.085938 216.53125 153.445312 215.316406 150.476562 C 214.066406 146.925781 212.070312 144.050781 209.335938 141.859375 C 206.597656 139.667969 203.628906 138.070312 200.4375 137.0625 C 197.382812 136.136719 194.511719 135.671875 191.820312 135.671875 Z M 194.546875 215.015625 C 194.410156 218.789062 194.648438 222.566406 195.257812 226.347656 C 195.964844 230.953125 196.660156 234.449219 197.34375 236.839844 C 197.90625 238.519531 198.492188 239.410156 199.101562 239.519531 C 200.707031 239.484375 201.75 237.886719 202.230469 234.71875 C 202.449219 234.671875 202.519531 232.726562 202.449219 228.890625 L 202.445312 228.890625 C 201.730469 232.210938 201.207031 234.222656 200.882812 234.921875 C 200.488281 236.03125 200.074219 236.59375 199.640625 236.613281 C 199.261719 236.609375 198.84375 236.160156 198.390625 235.269531 C 196.371094 231.089844 195.089844 224.339844 194.550781 215.015625 Z M 206.964844 250.226562 C 207.277344 251.269531 207.460938 252.167969 207.511719 252.921875 C 207.589844 253.902344 207.433594 254.871094 207.042969 255.828125 C 206.039062 258.210938 204.277344 259.710938 201.765625 260.324219 C 201.363281 260.40625 200.949219 260.449219 200.519531 260.449219 C 199.734375 260.449219 198.898438 260.308594 198.007812 260.03125 C 197.347656 259.8125 196.71875 259.511719 196.117188 259.140625 C 195.394531 258.648438 194.976562 258.335938 194.871094 258.199219 C 194.355469 257.734375 193.933594 257.222656 193.59375 256.660156 C 193.484375 256.53125 193.289062 256.09375 193.011719 255.34375 C 192.8125 254.898438 192.667969 254.039062 192.574219 252.761719 C 192.464844 253.285156 192.402344 253.835938 192.386719 254.414062 C 192.390625 255.140625 192.484375 255.835938 192.667969 256.507812 L 193.007812 257.476562 C 193.277344 258.109375 193.617188 258.691406 194.03125 259.226562 C 195.324219 260.878906 197.050781 261.875 199.207031 262.214844 C 199.566406 262.253906 199.917969 262.273438 200.261719 262.273438 C 202.082031 262.273438 203.695312 261.730469 205.097656 260.648438 C 206.753906 259.355469 207.753906 257.632812 208.09375 255.480469 L 208.167969 254.414062 C 208.125 252.828125 207.726562 251.433594 206.964844 250.226562 Z M 206.964844 250.226562 " fill-opacity="1" fill-rule="nonzero"/>
    </g>
    <path fill="#fe5a5a" d="M 139.496094 165.117188 L 139.511719 164.8125 C 141.214844 148.730469 144.878906 137.820312 150.507812 132.082031 C 157.972656 124.285156 168.65625 118.789062 182.5625 115.59375 C 171.46875 121.273438 165.382812 124.707031 164.296875 125.898438 C 159.488281 129.722656 155.574219 133.855469 152.5625 138.296875 C 150.238281 141.960938 148.660156 146.050781 147.824219 150.570312 C 146.59375 156.230469 145.867188 163.421875 145.648438 172.140625 C 145.617188 172.726562 145.433594 173.238281 145.109375 173.671875 C 144.121094 174.285156 142.832031 173.515625 141.234375 171.371094 C 140.011719 169.425781 139.429688 167.34375 139.496094 165.117188 Z M 139.496094 165.117188 " fill-opacity="1" fill-rule="nonzero"/>
</svg>